<?xml version="1.0" encoding="UTF-8" standalone="no"?>
<!DOCTYPE svg PUBLIC "-//W3C//DTD SVG 1.1//EN" "http://www.w3.org/Graphics/SVG/1.1/DTD/svg11.dtd">
<svg width="100%" height="100%" viewBox="0 0 4193 1000" version="1.1" xmlns="http://www.w3.org/2000/svg" xmlns:xlink="http://www.w3.org/1999/xlink" xml:space="preserve" xmlns:serif="http://www.serif.com/" style="fill-rule:evenodd;clip-rule:evenodd;stroke-linejoin:round;stroke-miterlimit:2;">
    <g transform="matrix(1,0,0,1,-19.9044,-1148.52)">
        <g id="Website-Yellow-Horizontal" serif:id="Website Yellow Horizontal" transform="matrix(4.19267,0,0,1,-22329.8,1148.52)">
            <rect x="5330.67" y="0" width="1000" height="1000" style="fill:none;"/>
            <g id="Yellow" transform="matrix(0.238511,0,0,1,5314.35,49.8922)">
                <g id="Symbol-Geometry" serif:id="Symbol Geometry" transform="matrix(1,0,0,1,-600.422,-647.454)">
                    <path id="Body" d="M793.031,1073.43L793.031,971.103C793.031,801.41 930.801,663.64 1100.49,663.64L1100.99,663.64C1270.33,663.64 1407.81,801.121 1407.81,970.459L1407.81,1205.48C1407.81,1365.98 1277.51,1496.28 1117.02,1496.28L793.031,1496.28L793.031,1495.6C900.193,1484.99 984.02,1394.46 984.02,1284.52C984.02,1174.57 900.193,1084.04 793.031,1073.43ZM1099.94,937.287C1150.82,784.777 1252.58,784.777 1303.45,821.36C1354.34,857.943 1354.34,931.11 1303.45,1004.28C1267.84,1059.15 1176.26,1114.03 1099.94,1150.61C1023.62,1114.03 932.045,1059.15 896.431,1004.28C845.552,931.11 845.552,857.943 896.431,821.36C947.309,784.777 1049.07,784.777 1099.94,937.287Z" style="fill:rgb(255,207,0);"/>
                    <g id="Eye" transform="matrix(1.94994e-17,-0.31845,0.31845,1.94994e-17,327.388,1138.83)">
                        <path d="M755.221,1804.14C643.14,1804.14 552.145,1895.14 552.145,2007.22C552.145,2119.3 643.14,2210.29 755.221,2210.29C716.297,2166.11 684.695,2090.32 684.695,2007.22C684.695,1924.11 716.297,1848.32 755.221,1804.14Z" style="fill:rgb(255,207,0);"/>
                    </g>
                    <g id="Eye1" serif:id="Eye" transform="matrix(1.94994e-17,-0.31845,0.31845,1.94994e-17,590.47,1138.83)">
                        <path d="M755.221,1804.14C643.14,1804.14 552.145,1895.14 552.145,2007.22C552.145,2119.3 643.14,2210.29 755.221,2210.29C716.879,2165.76 685.75,2090.09 685.75,2007.22C685.75,1924.34 716.879,1848.68 755.221,1804.14Z" style="fill:rgb(255,207,0);"/>
                    </g>
                    <g id="Wing" transform="matrix(1.45315,5.33877e-16,6.00436e-16,-1.63431,-237.43,3952.03)">
                        <path d="M709.382,1736.05C766.632,1736.05 813.042,1689.64 813.042,1632.39C813.042,1575.14 766.632,1528.73 709.382,1528.73L709.382,1736.05Z" style="fill:rgb(255,207,0);"/>
                    </g>
                </g>
                <g id="Lettering-Geometry" serif:id="Lettering Geometry" transform="matrix(4.95242,0,0,4.95242,-2950.32,-7380.94)">
                    <g transform="matrix(0.482407,0,0,0.482407,710.836,817.987)">
                        <path d="M259.915,1611.42L259.915,1637.15L171.019,1637.15L171.019,1504.1L200.971,1504.1L200.971,1611.42L259.915,1611.42Z" style="fill:rgb(255,207,0);fill-rule:nonzero;"/>
                        <path d="M469.635,1555.36C467.331,1557.92 464.227,1561.38 460.323,1565.73C456.419,1570.08 452.227,1574.88 447.747,1580.13C443.267,1585.38 438.755,1590.88 434.211,1596.64C429.667,1602.4 425.539,1607.97 421.827,1613.34L470.595,1613.34L470.595,1637.15L387.075,1637.15L387.075,1620.26C389.763,1615.65 392.995,1610.69 396.771,1605.38C400.547,1600.06 404.515,1594.72 408.675,1589.34C412.835,1583.97 416.963,1578.75 421.059,1573.7C425.155,1568.64 428.931,1564.06 432.387,1559.97L389.379,1559.97L389.379,1536.16L469.635,1536.16L469.635,1555.36Z" style="fill:rgb(255,207,0);fill-rule:nonzero;"/>
                        <path d="M579.459,1536.16C573.699,1555.62 567.683,1573.86 561.411,1590.88C555.139,1607.9 548.291,1624.42 540.867,1640.42C538.179,1646.18 535.491,1651.07 532.803,1655.1C530.115,1659.14 527.171,1662.46 523.971,1665.09C520.771,1667.71 517.155,1669.63 513.123,1670.85C509.091,1672.06 504.387,1672.67 499.011,1672.67C494.531,1672.67 490.403,1672.26 486.627,1671.42C482.851,1670.59 479.747,1669.66 477.315,1668.64L482.307,1645.79C485.251,1646.82 487.875,1647.52 490.179,1647.9C492.483,1648.29 494.915,1648.48 497.475,1648.48C502.595,1648.48 506.531,1647.1 509.283,1644.35C512.035,1641.6 514.371,1637.79 516.291,1632.93C509.763,1620.13 503.235,1605.76 496.707,1589.82C490.179,1573.89 484.035,1556 478.275,1536.16L508.611,1536.16C509.891,1541.15 511.395,1546.56 513.123,1552.38C514.851,1558.21 516.675,1564.1 518.595,1570.05C520.515,1576 522.467,1581.79 524.451,1587.42C526.435,1593.06 528.323,1598.18 530.115,1602.78C531.779,1598.18 533.507,1593.06 535.299,1587.42C537.091,1581.79 538.851,1576 540.579,1570.05C542.307,1564.1 543.971,1558.21 545.571,1552.38C547.171,1546.56 548.611,1541.15 549.891,1536.16L579.459,1536.16Z" style="fill:rgb(255,207,0);fill-rule:nonzero;"/>
                        <path d="M686.019,1637.15C677.443,1621.92 668.163,1606.88 658.179,1592.03C648.195,1577.18 637.571,1563.17 626.307,1549.98L626.307,1637.15L596.739,1637.15L596.739,1504.1L621.123,1504.1C625.347,1508.32 630.019,1513.5 635.139,1519.65C640.259,1525.79 645.475,1532.35 650.787,1539.33C656.099,1546.3 661.379,1553.54 666.627,1561.02C671.875,1568.51 676.803,1575.71 681.411,1582.62L681.411,1504.1L711.171,1504.1L711.171,1637.15L686.019,1637.15Z" style="fill:rgb(255,207,0);fill-rule:nonzero;"/>
                        <rect x="739.971" y="1536.16" width="28.608" height="100.992" style="fill:rgb(255,207,0);"/>
                        <g transform="matrix(2.32334,0,0,2.32334,-1444.62,-2447.88)">
                            <path d="M944.744,1689.35C945.015,1688.74 945.62,1688.35 946.289,1688.35C946.957,1688.35 947.562,1688.74 947.833,1689.35L950.111,1694.5L955.706,1695.07C956.371,1695.14 956.933,1695.6 957.139,1696.23C957.346,1696.87 957.158,1697.56 956.661,1698.01L952.473,1701.77L953.653,1707.27C953.794,1707.92 953.535,1708.59 952.995,1708.99C952.454,1709.38 951.733,1709.42 951.154,1709.08L946.289,1706.26L941.423,1709.08C940.845,1709.42 940.123,1709.38 939.582,1708.99C939.042,1708.59 938.784,1707.92 938.924,1707.27L940.104,1701.77L935.917,1698.01C935.419,1697.56 935.231,1696.87 935.438,1696.23C935.644,1695.6 936.206,1695.14 936.871,1695.07L942.466,1694.5L944.744,1689.35Z" style="fill:rgb(255,207,0);"/>
                        </g>
                        <path d="M819.575,1657.6C819.575,1653.67 821.758,1650.39 827.217,1646.9C831.147,1647.77 835.951,1648.21 843.812,1648.21L857.349,1648.21C869.795,1648.21 876.346,1649.74 876.346,1656.73C876.346,1664.15 864.336,1670.05 847.087,1670.05C830.056,1670.05 819.575,1665.68 819.575,1657.6ZM793.373,1662.4C793.373,1681.84 814.334,1690.13 842.501,1690.13C881.804,1690.13 906.915,1673.76 906.915,1651.05C906.915,1631.62 891.412,1623.76 863.026,1623.76L842.938,1623.76C830.274,1623.76 824.597,1621.35 824.597,1615.46C824.597,1611.97 826.125,1610 829.4,1607.6C834.859,1609.13 839.881,1609.78 844.248,1609.78C869.358,1609.78 889.01,1598.43 889.01,1573.54C889.01,1567.86 886.608,1562.4 883.988,1559.12L906.041,1559.12L906.041,1535.76L862.153,1535.76C856.913,1534.01 850.799,1533.14 844.248,1533.14C819.793,1533.14 797.958,1546.46 797.958,1572.44C797.958,1585.11 804.29,1594.93 812.151,1600.17L812.151,1601.05C804.509,1606.29 799.268,1614.15 799.268,1621.35C799.268,1630.53 804.29,1636.2 810.186,1639.91L810.186,1640.79C799.05,1646.25 793.373,1653.67 793.373,1662.4ZM844.248,1590.35C835.296,1590.35 828.09,1584.23 828.09,1572.44C828.09,1560.87 835.296,1554.76 844.248,1554.76C853.201,1554.76 860.843,1560.87 860.843,1572.44C860.843,1584.23 853.201,1590.35 844.248,1590.35Z" style="fill:rgb(255,207,0);fill-rule:nonzero;"/>
                        <path d="M926.468,1637.15L926.468,1492.77L955.076,1488.16L955.076,1536.54C956.996,1535.9 959.46,1535.3 962.468,1534.72C965.476,1534.14 968.388,1533.86 971.204,1533.86C979.396,1533.86 986.212,1534.98 991.652,1537.22C997.092,1539.46 1001.44,1542.62 1004.71,1546.72C1007.97,1550.82 1010.28,1555.68 1011.62,1561.31C1012.96,1566.94 1013.64,1573.22 1013.64,1580.13L1013.64,1637.15L985.028,1637.15L985.028,1583.58C985.028,1574.37 983.844,1567.84 981.476,1564C979.108,1560.16 974.724,1558.24 968.324,1558.24C965.764,1558.24 963.364,1558.46 961.124,1558.91C958.884,1559.36 956.868,1559.84 955.076,1560.35L955.076,1637.15L926.468,1637.15Z" style="fill:rgb(255,207,0);fill-rule:nonzero;"/>
                        <path d="M1038.6,1511.01L1067.2,1506.4L1067.2,1536.16L1101.57,1536.16L1101.57,1559.97L1067.2,1559.97L1067.2,1595.49C1067.2,1601.5 1068.26,1606.3 1070.37,1609.89C1072.48,1613.47 1076.74,1615.26 1083.14,1615.26C1086.21,1615.26 1089.38,1614.98 1092.64,1614.4C1095.91,1613.82 1098.88,1613.02 1101.57,1612L1105.6,1634.27C1102.15,1635.68 1098.31,1636.9 1094.08,1637.92C1089.86,1638.94 1084.68,1639.46 1078.53,1639.46C1070.72,1639.46 1064.26,1638.4 1059.14,1636.29C1054.02,1634.18 1049.92,1631.23 1046.85,1627.46C1043.78,1623.68 1041.64,1619.1 1040.42,1613.73C1039.2,1608.35 1038.6,1602.4 1038.6,1595.87L1038.6,1511.01Z" style="fill:rgb(255,207,0);fill-rule:nonzero;"/>
                        <path d="M1337.92,1579.17C1335.36,1588.9 1332.64,1598.56 1329.76,1608.16C1326.88,1617.76 1323.84,1627.42 1320.64,1637.15L1298.37,1637.15C1296.07,1631.78 1293.57,1625.38 1290.88,1617.95C1288.2,1610.53 1285.41,1602.43 1282.53,1593.66C1279.65,1584.9 1276.71,1575.62 1273.7,1565.82C1270.69,1556.03 1267.78,1546.14 1264.96,1536.16L1295.11,1536.16C1296.13,1540.77 1297.25,1545.79 1298.47,1551.23C1299.68,1556.67 1300.96,1562.27 1302.31,1568.03C1303.65,1573.79 1305.06,1579.58 1306.53,1585.41C1308,1591.23 1309.51,1596.83 1311.04,1602.21C1312.71,1596.58 1314.34,1590.82 1315.94,1584.93C1317.54,1579.04 1319.08,1573.25 1320.55,1567.55C1322.02,1561.86 1323.43,1556.35 1324.77,1551.04C1326.12,1545.73 1327.3,1540.77 1328.32,1536.16L1349.06,1536.16C1350.08,1540.77 1351.24,1545.73 1352.52,1551.04C1353.8,1556.35 1355.14,1561.86 1356.55,1567.55C1357.96,1573.25 1359.43,1579.04 1360.96,1584.93C1362.5,1590.82 1364.1,1596.58 1365.76,1602.21C1367.3,1596.83 1368.84,1591.23 1370.37,1585.41C1371.91,1579.58 1373.35,1573.79 1374.69,1568.03C1376.04,1562.27 1377.32,1556.67 1378.53,1551.23C1379.75,1545.79 1380.87,1540.77 1381.89,1536.16L1411.65,1536.16C1408.84,1546.14 1405.92,1556.03 1402.92,1565.82C1399.91,1575.62 1396.96,1584.9 1394.08,1593.66C1391.2,1602.43 1388.39,1610.53 1385.64,1617.95C1382.88,1625.38 1380.36,1631.78 1378.05,1637.15L1355.78,1637.15C1352.58,1627.42 1349.44,1617.76 1346.37,1608.16C1343.3,1598.56 1340.48,1588.9 1337.92,1579.17Z" style="fill:rgb(255,207,0);fill-rule:nonzero;"/>
                        <path d="M1467.33,1639.07C1459.01,1638.94 1452.26,1638.05 1447.08,1636.38C1441.89,1634.72 1437.8,1632.38 1434.79,1629.38C1431.78,1626.37 1429.73,1622.72 1428.64,1618.43C1427.56,1614.14 1427.01,1609.31 1427.01,1603.94L1427.01,1492.77L1455.62,1488.16L1455.62,1598.18C1455.62,1600.74 1455.81,1603.04 1456.2,1605.09C1456.58,1607.14 1457.32,1608.86 1458.4,1610.27C1459.49,1611.68 1461.06,1612.83 1463.11,1613.73C1465.16,1614.62 1467.91,1615.2 1471.36,1615.46L1467.33,1639.07Z" style="fill:rgb(255,207,0);fill-rule:nonzero;"/>
                    </g>
                    <g transform="matrix(1.7246,0,0,1.7246,-240.926,-1191.73)">
                        <path d="M883.961,1585.22C894.617,1585.22 903.269,1593.87 903.269,1604.53C903.269,1615.19 894.617,1623.84 883.961,1623.84C873.304,1623.84 864.652,1615.19 864.652,1604.53C864.652,1593.87 873.304,1585.22 883.961,1585.22ZM883.961,1593.43C890.084,1593.43 895.056,1598.41 895.056,1604.53C895.056,1610.65 890.084,1615.63 883.961,1615.63C877.837,1615.63 872.865,1610.65 872.865,1604.53C872.865,1598.41 877.837,1593.43 883.961,1593.43Z" style="fill:rgb(255,207,0);"/>
                    </g>
                    <g transform="matrix(1.02151,0,0,1.02151,-17.0674,-33.0421)">
                        <path d="M878.472,1603.06C874.472,1605.82 869.622,1607.44 864.398,1607.44C850.711,1607.44 839.598,1596.33 839.598,1582.64C839.598,1568.95 850.711,1557.84 864.398,1557.84C877.963,1557.84 889,1568.76 889.195,1582.28L889.196,1582.28L889.196,1582.35C889.197,1582.45 889.198,1582.54 889.198,1582.64C889.198,1582.74 889.197,1582.83 889.196,1582.93L889.196,1606.25L878.472,1606.25L878.472,1603.06ZM864.398,1570.24C871.242,1570.24 876.798,1575.8 876.798,1582.64C876.798,1589.48 871.242,1595.04 864.398,1595.04C857.554,1595.04 851.998,1589.48 851.998,1582.64C851.998,1575.8 857.554,1570.24 864.398,1570.24Z" style="fill:rgb(255,207,0);"/>
                    </g>
                </g>
            </g>
        </g>
    </g>
</svg>
